<?xml version="1.0" standalone="no"?>
<!DOCTYPE svg PUBLIC "-//W3C//DTD SVG 20010904//EN"
 "http://www.w3.org/TR/2001/REC-SVG-20010904/DTD/svg10.dtd">
<svg version="1.0" xmlns="http://www.w3.org/2000/svg"
 width="1000.000000pt" height="1000.000000pt" viewBox="0 0 1000.000000 1000.000000"
 preserveAspectRatio="xMidYMid meet">

<g transform="translate(0.000000,1000.000000) scale(0.100000,-0.100000)"
fill="#000000" stroke="none">
<path d="M1205 7376 c-59 -19 -88 -41 -116 -88 l-24 -43 -3 -2224 c-1 -1530 1
-2235 8 -2262 32 -117 177 -185 311 -146 62 18 108 60 136 122 17 37 18 97 21
912 l3 872 792 4 c782 3 793 3 877 25 334 88 607 363 693 699 22 87 22 98 22
708 0 611 0 621 -23 709 -24 97 -82 228 -133 303 -47 69 -174 198 -244 248
-88 63 -196 114 -304 143 l-96 27 -940 2 c-741 2 -949 -1 -980 -11z m1900
-481 c32 -9 80 -27 107 -42 56 -31 143 -119 181 -183 55 -95 57 -115 57 -715
0 -599 -1 -614 -57 -717 -35 -64 -137 -159 -205 -191 -99 -46 -117 -47 -903
-47 l-745 0 0 955 0 955 753 0 c644 0 761 -2 812 -15z"/>
<path d="M4806 7375 c-89 -32 -166 -134 -166 -221 0 -42 948 -4334 973 -4403
40 -112 168 -174 291 -140 48 13 119 78 145 132 11 23 180 485 376 1027 196
542 360 988 364 993 4 4 164 -426 356 -955 191 -530 361 -995 377 -1034 29
-73 71 -125 120 -150 43 -22 121 -29 173 -14 59 17 129 79 149 133 28 76 976
4365 976 4416 0 65 -13 98 -58 144 -73 77 -165 102 -263 74 -63 -19 -100 -52
-127 -117 -11 -25 -194 -834 -408 -1797 -214 -964 -391 -1753 -394 -1753 -3 0
-158 421 -344 936 -250 689 -349 951 -376 994 -81 123 -225 145 -323 47 -22
-22 -49 -62 -62 -91 -13 -28 -173 -465 -356 -970 -243 -672 -335 -914 -341
-900 -4 10 -181 799 -392 1752 -412 1855 -398 1799 -474 1862 -59 48 -141 62
-216 35z"/>
</g>
</svg>
