<?xml version="1.0" standalone="no"?>
<!DOCTYPE svg PUBLIC "-//W3C//DTD SVG 20010904//EN"
 "http://www.w3.org/TR/2001/REC-SVG-20010904/DTD/svg10.dtd">
<svg version="1.0" xmlns="http://www.w3.org/2000/svg"
 width="1000.000000pt" height="1000.000000pt" viewBox="0 0 1000.000000 1000.000000"
 preserveAspectRatio="xMidYMid meet">

<g transform="translate(0.000000,1000.000000) scale(0.100000,-0.100000)"
fill="#000000" stroke="none">
<path d="M1610 5430 l0 -2050 170 0 170 0 0 2050 0 2050 -170 0 -170 0 0
-2050z"/>
<path d="M4560 5430 l0 -2050 488 0 c534 0 570 3 679 58 120 61 221 179 266
311 l22 66 3 928 c2 619 -1 947 -8 985 -16 86 -54 141 -125 177 -57 29 -62 30
-194 29 -94 -1 -236 -14 -457 -43 -177 -22 -324 -41 -327 -41 -4 0 -7 367 -7
815 l0 815 -170 0 -170 0 0 -2050z m1110 -668 c0 -959 3 -922 -74 -998 -67
-68 -103 -74 -423 -74 l-273 0 0 950 0 950 48 1 c26 1 146 5 267 8 121 4 273
8 338 9 l117 2 0 -848z"/>
<path d="M2750 5914 c-74 -20 -119 -58 -155 -129 l-30 -60 -3 -257 -3 -258
170 0 171 0 0 215 0 215 375 0 375 0 0 -384 0 -385 -457 -3 -458 -3 -58 -28
c-62 -31 -97 -69 -124 -138 -16 -40 -18 -91 -18 -584 0 -428 3 -548 14 -580
23 -70 60 -113 120 -142 53 -27 62 -28 196 -27 77 1 185 7 240 13 124 15 458
60 503 68 31 5 32 4 32 -31 l0 -36 170 0 170 0 0 1163 c0 729 -4 1175 -10
1197 -19 71 -64 126 -127 156 l-58 29 -490 2 c-408 2 -499 0 -545 -13z m900
-1763 l0 -449 -147 -6 c-82 -3 -257 -9 -390 -12 l-243 -6 0 461 0 461 390 0
390 0 0 -449z"/>
<path d="M6769 5917 c-69 -19 -111 -48 -146 -100 -47 -69 -55 -142 -51 -434 4
-267 9 -295 62 -371 14 -20 239 -213 500 -427 l475 -390 1 -257 0 -258 -350 0
-350 0 0 285 0 285 -170 0 -170 0 0 -318 c0 -365 4 -395 71 -467 74 -80 74
-80 629 -80 l485 0 58 28 c63 31 97 70 124 138 15 38 17 86 17 359 1 346 -3
374 -63 457 -15 21 -242 213 -504 427 l-477 389 0 223 0 224 355 0 355 0 0
-250 0 -250 166 0 165 0 -3 303 c-4 344 -6 358 -83 425 -76 66 -70 66 -585 69
-348 1 -476 -1 -511 -10z"/>
<path d="M8480 3610 l0 -230 195 0 195 0 0 230 0 230 -195 0 -195 0 0 -230z"/>
</g>
</svg>
